<?xml version="1.0" encoding="UTF-8"?>
<svg width="24px" height="24px" viewBox="0 0 24 24" version="1.1" xmlns="http://www.w3.org/2000/svg" xmlns:xlink="http://www.w3.org/1999/xlink">
    <!-- Generator: sketchtool 41.2 (35397) - http://www.bohemiancoding.com/sketch -->
    <title>99242CAE-875B-4082-A547-157D9E348425</title>
    <desc>Created with sketchtool.</desc>
    <defs></defs>
    <g id="Objects" stroke="none" stroke-width="1" fill="none" fill-rule="evenodd">
        <g id="Mobile---Header-Dropdown" transform="translate(-276.000000, -77.000000)" fill="#2180C3">
            <path d="M299.120905,77.8790947 C297.948779,76.7069684 296.061942,76.7069684 294.889815,77.8790947 L288,84.7689101 L281.110185,77.8790947 C279.938058,76.7069684 278.051221,76.7069684 276.879095,77.8790947 C275.706968,79.051221 275.706968,80.9380584 276.879095,82.1101846 L283.76891,89 L276.879095,95.8898154 C275.706968,97.0619416 275.706968,98.948779 276.879095,100.120905 C277.479452,100.721263 278.222752,101.007147 278.99464,101.007147 C279.766528,101.007147 280.538416,100.721263 281.110185,100.120905 L288,93.2310899 L294.889815,100.120905 C295.490173,100.721263 296.233472,101.007147 297.00536,101.007147 C297.777248,101.007147 298.549136,100.721263 299.120905,100.120905 C300.293032,98.948779 300.293032,97.0619416 299.120905,95.8898154 L292.23109,89 L299.120905,82.1101846 C300.293032,80.9380584 300.293032,79.051221 299.120905,77.8790947 L299.120905,77.8790947 Z" id="Shape"></path>
        </g>
    </g>
</svg>