<?xml version="1.0" encoding="UTF-8"?>
<svg width="25px" height="18px" viewBox="0 0 25 18" version="1.1" xmlns="http://www.w3.org/2000/svg" xmlns:xlink="http://www.w3.org/1999/xlink">
    <!-- Generator: sketchtool 41.2 (35397) - http://www.bohemiancoding.com/sketch -->
    <title>F3581B8F-45E4-4B35-AE2F-EA92E461FAB3</title>
    <desc>Created with sketchtool.</desc>
    <defs></defs>
    <g id="Objects" stroke="none" stroke-width="1" fill="none" fill-rule="evenodd">
        <g id="Mobile---Header" transform="translate(-275.000000, -80.000000)" fill="#2180C3">
            <path d="M276.492537,82.9850746 L289.552239,82.9850746 C290.376119,82.9850746 291.044776,82.3164179 291.044776,81.4925373 C291.044776,80.6686567 290.376119,80 289.552239,80 L276.492537,80 C275.668657,80 275,80.6686567 275,81.4925373 C275,82.3164179 275.668657,82.9850746 276.492537,82.9850746 Z M276.492537,90.4477612 L298.507463,90.4477612 C299.331343,90.4477612 300,89.7791045 300,88.9552239 C300,88.1313433 299.331343,87.4626866 298.507463,87.4626866 L276.492537,87.4626866 C275.668657,87.4626866 275,88.1313433 275,88.9552239 C275,89.7791045 275.668657,90.4477612 276.492537,90.4477612 Z M298.507463,94.8014925 L276.492537,94.8014925 C275.668657,94.8014925 275,95.4701493 275,96.2940299 C275,97.1179104 275.668657,97.7865672 276.492537,97.7865672 L298.507463,97.7865672 C299.331343,97.7865672 300,97.1179104 300,96.2940299 C300,95.4701493 299.33209,94.8014925 298.507463,94.8014925 Z" id="Combined-Shape"></path>
        </g>
    </g>
</svg>